<svg xmlns="http://www.w3.org/2000/svg" width="1080" height="1920" viewBox="0 0 1080 1920"><style>text{font-family:'PingFang SC','Microsoft YaHei',sans-serif}</style><image href="https://audiopaytest.cos.tx.xmcdn.com/storages/d709-audiotest/E4/5D/GAqSoUUOlMrmAAMckQACF0Qu.jpg" width="1080" height="1920"/><rect width="1080" height="1920" fill="#07101B" opacity=".91"/><rect x="110" y="630" width="860" height="660" rx="26" fill="#080F17"/><rect x="114" y="634" width="852" height="652" rx="23" fill="#6B5035"/><rect x="119" y="639" width="842" height="642" rx="19" fill="#B48B53"/><rect x="124" y="644" width="832" height="632" rx="15" fill="#352B24"/><rect x="129" y="649" width="822" height="622" rx="12" fill="#152732"/><path d="M155 672H925" stroke="#C47768" stroke-width="2"/><path d="M140 1245H940" stroke="#1D303B" stroke-width="2"/><path d="M140 1219H940" stroke="#1D303B" stroke-width="2"/><path d="M140 1193H940" stroke="#1D303B" stroke-width="2"/><path d="M140 1167H940" stroke="#1D303B" stroke-width="2"/><path d="M140 1141H940" stroke="#1D303B" stroke-width="2"/><path d="M140 1115H940" stroke="#1D303B" stroke-width="2"/><path d="M140 1089H940" stroke="#1D303B" stroke-width="2"/><path d="M140 1063H940" stroke="#1D303B" stroke-width="2"/><path d="M140 1037H940" stroke="#1D303B" stroke-width="2"/><path d="M140 1011H940" stroke="#1D303B" stroke-width="2"/><path d="M140 985H940" stroke="#1D303B" stroke-width="2"/><path d="M140 959H940" stroke="#1D303B" stroke-width="2"/><path d="M140 933H940" stroke="#1D303B" stroke-width="2"/><path d="M140 907H940" stroke="#1D303B" stroke-width="2"/><path d="M140 881H940" stroke="#1D303B" stroke-width="2"/><path d="M140 855H940" stroke="#1D303B" stroke-width="2"/><path d="M140 829H940" stroke="#1D303B" stroke-width="2"/><path d="M140 803H940" stroke="#1D303B" stroke-width="2"/><path d="M140 777H940" stroke="#1D303B" stroke-width="2"/><path d="M140 751H940" stroke="#1D303B" stroke-width="2"/><path d="M140 725H940" stroke="#1D303B" stroke-width="2"/><path d="M140 699H940" stroke="#1D303B" stroke-width="2"/><path d="M140 673H940" stroke="#1D303B" stroke-width="2"/><circle cx="123" cy="1255" r="5" fill="#C3A46A"/><circle cx="123" cy="665" r="5" fill="#C3A46A"/><circle cx="957" cy="1255" r="5" fill="#C3A46A"/><circle cx="957" cy="665" r="5" fill="#C3A46A"/><text x="540" y="725" dominant-baseline="central" text-anchor="middle" font-size="46.08" fill="#F4D58D">返回首页？</text><text x="540" y="795" dominant-baseline="central" text-anchor="middle" font-size="23.04" fill="#D7E6F5">第 3/8 波 · 核心 9/10</text><text x="540" y="1245" dominant-baseline="central" text-anchor="middle" font-size="20.16" fill="#A9C4DB">本局进度将清空；最快纪录保留</text><rect x="200" y="860" width="680" height="155" rx="18" fill="#080F17"/><rect x="203" y="863" width="674" height="149" rx="15" fill="#C47768"/><rect x="207" y="867" width="666" height="141" rx="12" fill="#452B2D"/><path d="M217 871H863" stroke="#938565" stroke-width="2"/><text x="540" y="937.5" dominant-baseline="central" text-anchor="middle" font-size="28.8" fill="#F4E9CD">确认返回首页</text><rect x="200" y="1040" width="680" height="155" rx="18" fill="#080F17"/><rect x="203" y="1043" width="674" height="149" rx="15" fill="#A78350"/><rect x="207" y="1047" width="666" height="141" rx="12" fill="#1C303C"/><path d="M217 1051H863" stroke="#938565" stroke-width="2"/><text x="540" y="1117.5" dominant-baseline="central" text-anchor="middle" font-size="28.8" fill="#F4E9CD">取消</text></svg>