<svg xmlns="http://www.w3.org/2000/svg" width="1080" height="1920" viewBox="0 0 1080 1920"><style>text{font-family:'PingFang SC','Microsoft YaHei',sans-serif}</style><image href="https://audiopaytest.cos.tx.xmcdn.com/storages/d709-audiotest/E4/5D/GAqSoUUOlMrmAAMckQACF0Qu.jpg" width="1080" height="1920"/><rect width="1080" height="1920" fill="#07101B" opacity=".91"/><rect x="85" y="370" width="910" height="1175" rx="26" fill="#080F17"/><rect x="89" y="374" width="902" height="1167" rx="23" fill="#6B5035"/><rect x="94" y="379" width="892" height="1157" rx="19" fill="#B48B53"/><rect x="99" y="384" width="882" height="1147" rx="15" fill="#352B24"/><rect x="104" y="389" width="872" height="1137" rx="12" fill="#152732"/><path d="M130 412H950" stroke="#A78350" stroke-width="2"/><path d="M115 1500H965" stroke="#1D303B" stroke-width="2"/><path d="M115 1474H965" stroke="#1D303B" stroke-width="2"/><path d="M115 1448H965" stroke="#1D303B" stroke-width="2"/><path d="M115 1422H965" stroke="#1D303B" stroke-width="2"/><path d="M115 1396H965" stroke="#1D303B" stroke-width="2"/><path d="M115 1370H965" stroke="#1D303B" stroke-width="2"/><path d="M115 1344H965" stroke="#1D303B" stroke-width="2"/><path d="M115 1318H965" stroke="#1D303B" stroke-width="2"/><path d="M115 1292H965" stroke="#1D303B" stroke-width="2"/><path d="M115 1266H965" stroke="#1D303B" stroke-width="2"/><path d="M115 1240H965" stroke="#1D303B" stroke-width="2"/><path d="M115 1214H965" stroke="#1D303B" stroke-width="2"/><path d="M115 1188H965" stroke="#1D303B" stroke-width="2"/><path d="M115 1162H965" stroke="#1D303B" stroke-width="2"/><path d="M115 1136H965" stroke="#1D303B" stroke-width="2"/><path d="M115 1110H965" stroke="#1D303B" stroke-width="2"/><path d="M115 1084H965" stroke="#1D303B" stroke-width="2"/><path d="M115 1058H965" stroke="#1D303B" stroke-width="2"/><path d="M115 1032H965" stroke="#1D303B" stroke-width="2"/><path d="M115 1006H965" stroke="#1D303B" stroke-width="2"/><path d="M115 980H965" stroke="#1D303B" stroke-width="2"/><path d="M115 954H965" stroke="#1D303B" stroke-width="2"/><path d="M115 928H965" stroke="#1D303B" stroke-width="2"/><path d="M115 902H965" stroke="#1D303B" stroke-width="2"/><path d="M115 876H965" stroke="#1D303B" stroke-width="2"/><path d="M115 850H965" stroke="#1D303B" stroke-width="2"/><path d="M115 824H965" stroke="#1D303B" stroke-width="2"/><path d="M115 798H965" stroke="#1D303B" stroke-width="2"/><path d="M115 772H965" stroke="#1D303B" stroke-width="2"/><path d="M115 746H965" stroke="#1D303B" stroke-width="2"/><path d="M115 720H965" stroke="#1D303B" stroke-width="2"/><path d="M115 694H965" stroke="#1D303B" stroke-width="2"/><path d="M115 668H965" stroke="#1D303B" stroke-width="2"/><path d="M115 642H965" stroke="#1D303B" stroke-width="2"/><path d="M115 616H965" stroke="#1D303B" stroke-width="2"/><path d="M115 590H965" stroke="#1D303B" stroke-width="2"/><path d="M115 564H965" stroke="#1D303B" stroke-width="2"/><path d="M115 538H965" stroke="#1D303B" stroke-width="2"/><path d="M115 512H965" stroke="#1D303B" stroke-width="2"/><path d="M115 486H965" stroke="#1D303B" stroke-width="2"/><path d="M115 460H965" stroke="#1D303B" stroke-width="2"/><path d="M115 434H965" stroke="#1D303B" stroke-width="2"/><path d="M115 408H965" stroke="#1D303B" stroke-width="2"/><circle cx="98" cy="1510" r="5" fill="#C3A46A"/><circle cx="98" cy="405" r="5" fill="#C3A46A"/><circle cx="982" cy="1510" r="5" fill="#C3A46A"/><circle cx="982" cy="405" r="5" fill="#C3A46A"/><text x="540" y="605" dominant-baseline="central" text-anchor="middle" font-size="47.52" fill="#F4D58D">夜城防线</text><rect x="790" y="440" width="170" height="155" rx="18" fill="#080F17"/><rect x="793" y="443" width="164" height="149" rx="15" fill="#A78350"/><rect x="797" y="447" width="156" height="141" rx="12" fill="#1C303C"/><path d="M807 451H943" stroke="#938565" stroke-width="2"/><text x="875" y="517.5" dominant-baseline="central" text-anchor="middle" font-size="22.32" fill="#F4E9CD">设置</text><rect x="211" y="680" width="188" height="226" rx="24" fill="#152732"/><rect x="211" y="680" width="188" height="226" rx="24" fill="none" stroke="#D8AD68" stroke-width="3"/><circle cx="305" cy="775" r="67" fill="#D8AD68"/><circle cx="305" cy="775" r="61" fill="#10202B"/><image href="https://audiopaytest.cos.tx.xmcdn.com/storages/b312-audiotest/C9/AD/GAqSoUUOlMrfAABLugACF0Qp.png" x="225" y="695" width="160" height="160"/><text x="305" y="875" dominant-baseline="central" text-anchor="middle" font-size="23.04" fill="#F4E9CD">机枪</text><rect x="446" y="680" width="188" height="226" rx="24" fill="#152732"/><rect x="446" y="680" width="188" height="226" rx="24" fill="none" stroke="#7EDCE7" stroke-width="3"/><circle cx="540" cy="775" r="67" fill="#7EDCE7"/><circle cx="540" cy="775" r="61" fill="#10202B"/><image href="https://audiopaytest.cos.tx.xmcdn.com/storages/d987-audiotest/D5/EB/GAqSiIMOlMrfAABDUQACF0Qq.png" x="460" y="695" width="160" height="160"/><text x="540" y="875" dominant-baseline="central" text-anchor="middle" font-size="23.04" fill="#F4E9CD">冷凝</text><rect x="681" y="680" width="188" height="226" rx="24" fill="#152732"/><rect x="681" y="680" width="188" height="226" rx="24" fill="none" stroke="#E4A087" stroke-width="3"/><circle cx="775" cy="775" r="67" fill="#E4A087"/><circle cx="775" cy="775" r="61" fill="#10202B"/><image href="https://audiopaytest.cos.tx.xmcdn.com/storages/f888-audiotest/7E/FF/GAqSoUUOlMrfAABEkQACF0Qr.png" x="695" y="695" width="160" height="160"/><text x="775" y="875" dominant-baseline="central" text-anchor="middle" font-size="23.04" fill="#F4E9CD">来袭</text><text x="540" y="1001.952" dominant-baseline="central" text-anchor="middle" font-size="24.48" fill="#D9E9F4">第一关 · 守住夜城入口</text><text x="540" y="1035" dominant-baseline="central" text-anchor="middle" font-size="24.48" fill="#D9E9F4">摆塔改路，让敌人走进火力区</text><text x="540" y="1068.048" dominant-baseline="central" text-anchor="middle" font-size="24.48" fill="#D9E9F4">机枪输出 · 冷凝减速 · 坚守八波</text><text x="540" y="1130" dominant-baseline="central" text-anchor="middle" font-size="23.76" fill="#F4D58D">最快 04:32 · 最佳核心 10/10</text><rect x="200" y="1175" width="680" height="150" rx="18" fill="#080F17"/><rect x="203" y="1178" width="674" height="144" rx="15" fill="#6FAF9D"/><rect x="207" y="1182" width="666" height="136" rx="12" fill="#25483F"/><path d="M217 1186H863" stroke="#938565" stroke-width="2"/><text x="540" y="1250" dominant-baseline="central" text-anchor="middle" font-size="31.68" fill="#F4E9CD">开始布防</text><rect x="200" y="1350" width="680" height="155" rx="18" fill="#080F17"/><rect x="203" y="1353" width="674" height="149" rx="15" fill="#A78350"/><rect x="207" y="1357" width="666" height="141" rx="12" fill="#1C303C"/><path d="M217 1361H863" stroke="#938565" stroke-width="2"/><text x="540" y="1427.5" dominant-baseline="central" text-anchor="middle" font-size="21.6" fill="#F4E9CD">直接开始 · 跳过引导</text></svg>